# xmcd
#
# Track frame offsets:
#	150
#	23181
#	63296
#	95546
#	109066
#	124527
#	157182
#	224417
#	256252
#	278298
#
# Disc length: 3956 seconds
#
# Revision: 2
# Processed by: cddbd v1.5.1PL2 Copyright (c) Steve Scherf et al.
# Submitted via: EasyCDDAExtractor 8.0.2.1
#
DISCID=840f720a
DTITLE=Dio - Egan Center Anchorage 20-05-97
DYEAR=1997
DGENRE=Hard Rock
TTITLE0=Don't Talk To Strangers
TTITLE1=Holy Diver - Drum Solo
TTITLE2=Heaven and Hell
TTITLE3=Double Monday
TTITLE4=Stand Up And Shout
TTITLE5=Hunter Of The Heart
TTITLE6=Mistreated - Catch The Rainbow - Mistreated Reprise
TTITLE7=The Last In Line
TTITLE8=Rainbow In The Dark
TTITLE9=The Mob Rules
EXTD=
EXTT0=
EXTT1=
EXTT2=
EXTT3=
EXTT4=
EXTT5=
EXTT6=
EXTT7=
EXTT8=
EXTT9=
PLAYORDER=
